<svg xmlns="http://www.w3.org/2000/svg" viewBox="0 0 1200 630">
  <defs>
    <radialGradient id="grad1" cx="50%" cy="50%" r="50%" fx="50%" fy="50%">
      <stop offset="0%" style="stop-color:#1a237e;stop-opacity:1" />
      <stop offset="100%" style="stop-color:#000051;stop-opacity:1" />
    </radialGradient>
    <filter id="shadow" x="-20%" y="-20%" width="140%" height="140%">
      <feDropShadow dx="2" dy="4" stdDeviation="3" flood-opacity="0.3"/>
    </filter>
  </defs>
  
  <rect width="1200" height="630" fill="url(#grad1)"/>

  <g transform="translate(600, 315)">
    
    <g transform="translate(-280, 0) scale(4.2)">
      <circle cx="0" cy="0" r="50" fill="#1a237e" stroke="#ffc107" stroke-width="2"/>
      <circle cx="0" cy="0" r="45" fill="none" stroke="#ffffff" stroke-width="0.5" stroke-dasharray="2,2" opacity="0.5"/>
      
      <path id="curveTop" d="M -40,0 A 40,40 0 0,1 40,0" fill="none"/>
      <path id="curveBot" d="M -40,0 A 40,40 0 0,0 40,0" fill="none"/>
      <text font-family="Courier New, monospace" font-weight="bold" font-size="6" fill="#ffc107" text-anchor="middle">
        <textPath href="#curveTop" startOffset="50%">DEPARTMENT OF LEISURE</textPath>
      </text>
      <text font-family="Courier New, monospace" font-weight="bold" font-size="5" fill="#ffc107" text-anchor="middle">
        <textPath href="#curveBot" startOffset="50%">UNITED STATES OF GOLF</textPath>
      </text>

      <g filter="url(#shadow)">
        <path d="M-25 -5 Q-15 -25 0 -28 Q15 -25 25 -5 L20 15 Q10 25 0 22 Q-10 25 -20 15 Z" fill="#ffc107"/>
        
        <path d="M0 -28 Q5 -35 12 -30 L10 -25 Z" fill="#ffc107"/>
        
        <path d="M-8 5 H8 V12 C8 18 0 20 0 20 C0 20 -8 18 -8 12 V5 Z" fill="#1a237e" stroke="#ffffff" stroke-width="0.5"/>
        <path d="M-5 5 V15 M0 5 V18 M5 5 V15" stroke="#d32f2f" stroke-width="1"/>
      </g>

      <g transform="translate(-18, 12) rotate(-20)">
        <line x1="0" y1="-5" x2="0" y2="15" stroke="#b0bec5" stroke-width="1.5"/>
        <path d="M0 15 L3 17 L0 18 Z" fill="#b0bec5"/> </g>

      <g transform="translate(18, 12) rotate(20)">
        <rect x="-2" y="0" width="5" height="8" fill="#d32f2f" rx="0.5"/> <rect x="-2" y="0" width="5" height="1" fill="#bdbdbd"/> <text x="0.5" y="6" font-size="4" fill="white" text-anchor="middle" font-family="Arial" font-weight="bold">C</text>
      </g>

      <path d="M-20 -15 Q0 -25 20 -15" fill="none" stroke="#ffffff" stroke-width="3"/>
      <path d="M-20 -15 Q0 -25 20 -15" fill="none" stroke="#1a237e" stroke-width="1.5"/> <text x="0" y="-17" font-size="3" fill="#1a237e" text-anchor="middle" font-weight="bold" font-family="serif" transform="rotate(-2)">
        E PLURIBUS FORE
      </text>
    </g>

    <g transform="translate(150, 0)">
      <text x="0" y="-40" font-family="Arial, sans-serif" font-weight="900" font-size="80" fill="#ffffff" text-anchor="middle" letter-spacing="-2">
        IS HE
      </text>
      <text x="0" y="40" font-family="Arial, sans-serif" font-weight="900" font-size="80" fill="#ffc107" text-anchor="middle" letter-spacing="-2">
        GOLFING?
      </text>
      
      <rect x="-140" y="70" width="280" height="40" fill="#d32f2f" rx="5"/>
      <text x="0" y="97" font-family="Arial, sans-serif" font-weight="bold" font-size="24" fill="#ffffff" text-anchor="middle">
        OFFICIAL TRACKER
      </text>
    </g>
  </g>
</svg>